:SAMPLES-PER-SECOND 30
:FULLY-SPECIFIED
:DEGREES
288
root  0.887101 19.5815 22.3142 55.0392 -3.39203 -9.03617
RightUpLeg  -66.7437 0.323811 9.12494
RightLeg  128.207 20.4911 -6.03353
RightFoot  -29.4798 -0.298407 -2.78526
RightToes  5.82077e-011 -3.18055e-015 -2.98177e-016
Spine  42.6829 -0.182682 10.4793
Spine1  -14.5451 3.0668 5.04371
HEad  -30.3265 15.0852 3.62994
LeftShoulder1  -3.88251e-019 9.70628e-020 -3.87848e-018
LeftArm  -10.8437 -22.4242 -55.1342
LeftForeArm  2.21338 -20.8024 2.35076
LeftHand  -6.71756 -9.19752 51.6145
RightShoulder  4.01729 9.99826 17.4918
RightArm  3.45895 8.20515 69.6922
RightForeArm  24.8637 9.88394 -4.51998
RightHand  -13.5969 10.9822 -80.1018
LeftUpLeg  -46.7799 4.04078 -7.15071
LeftLeg  94.1241 -17.1644 23.6968
LeftFoot  12.3666 2.33743 -10.1642
LeftToes  9.37148e-011 4.50685e-012 -4.11107e-011
289
root  0.884908 19.4035 22.9199 57.0083 -3.73226 -9.16764
RightUpLeg  -73.6258 2.25564 9.99164
RightLeg  130.969 19.3687 -4.29396
RightFoot  -32.1988 -0.227658 -2.00813
RightToes  5.82077e-011 -3.18055e-015 -2.98177e-016
Spine  40.9858 1.4582 7.74586
Spine1  -14.1224 3.21235 9.00642
HEad  -30.8903 15.0174 2.39735
LeftShoulder1  -3.88251e-019 9.70628e-020 -3.87848e-018
LeftArm  -12.0164 -27.6851 -54.8618
LeftForeArm  1.41284 -13.4364 -0.141052
LeftHand  -6.50182 -8.28358 53.0499
RightShoulder  4.40441 10.2613 19.2951
RightArm  4.12549 7.45015 68.1079
RightForeArm  26.4406 11.1157 -4.61283
RightHand  -13.7616 11.0679 -80.4941
LeftUpLeg  -46.5739 3.8557 -7.49373
LeftLeg  92.5671 -16.4299 23.2533
LeftFoot  11.361 2.1513 -9.75593
LeftToes  9.37148e-011 4.50685e-012 -4.11107e-011
290
root  0.912775 19.1527 23.6045 59.5713 -4.20566 -9.05023
RightUpLeg  -80.547 3.89935 10.8624
RightLeg  131.17 19.5187 -4.44243
RightFoot  -31.6581 -0.132326 -1.46821
RightToes  5.82077e-011 -3.18055e-015 -2.98177e-016
Spine  37.6935 3.13206 5.95199
Spine1  -12.7443 3.66467 11.4769
HEad  -30.7981 13.2802 1.14634
LeftShoulder1  -3.88251e-019 9.70628e-020 -3.87848e-018
LeftArm  -9.22375 -29.1884 -56.4941
LeftForeArm  -1.52578 -10.3185 -1.68829
LeftHand  -7.12894 -8.17121 57.7901
RightShoulder  4.87489 10.4152 21.6813
RightArm  5.54443 6.58451 64.4558
RightForeArm  26.6706 13.1854 -5.12438
RightHand  -13.8006 11.0874 -80.5887
LeftUpLeg  -46.7888 3.53068 -8.44427
LeftLeg  90.4523 -15.6081 23.4964
LeftFoot  10.8542 1.95497 -9.05688
LeftToes  9.37148e-011 4.50685e-012 -4.11107e-011
291
root  1.0025 18.9888 24.3717 60.0576 -4.01946 -8.45092
RightUpLeg  -83.8871 4.19818 12.2954
RightLeg  128.931 21.6317 -7.21368
RightFoot  -26.4219 -0.0642401 -1.32478
RightToes  5.82077e-011 -3.18055e-015 -2.98177e-016
Spine  35.7477 3.57589 6.38082
Spine1  -10.6838 3.94776 11.3408
HEad  -29.8602 10.6724 0.108952
LeftShoulder1  -3.88251e-019 9.70628e-020 -3.87848e-018
LeftArm  -6.2016 -28.4139 -58.6763
LeftForeArm  -3.40272 -11.7173 -2.81686
LeftHand  -7.87947 -8.61797 61.1212
RightShoulder  5.26793 10.4205 23.8411
RightArm  7.3711 5.82224 60.1799
RightForeArm  25.469 15.0049 -5.94917
RightHand  -13.7183 11.0071 -80.5233
LeftUpLeg  -44.8692 2.66375 -8.91157
LeftLeg  87.9485 -14.6212 23.8173
LeftFoot  11.0376 1.70208 -7.80889
LeftToes  9.37148e-011 4.50685e-012 -4.11107e-011
292
root  1.10093 18.8987 25.1595 58.2713 -2.94992 -7.06965
RightUpLeg  -82.598 2.96662 13.7046
RightLeg  125.746 24.5416 -11.5622
RightFoot  -19.391 -0.00267395 -1.14076
RightToes  5.82077e-011 -3.18055e-015 -2.98177e-016
Spine  35.5684 2.77033 7.85441
Spine1  -8.21475 3.61119 10.2062
HEad  -28.7388 8.2967 -0.694534
LeftShoulder1  -3.88251e-019 9.70628e-020 -3.87848e-018
LeftArm  -3.90926 -27.7627 -60.5324
LeftForeArm  -4.08193 -13.9066 -3.72132
LeftHand  -8.33397 -9.02549 62.4468
RightShoulder  5.46083 10.3726 24.9824
RightArm  8.05466 4.83459 57.03
RightForeArm  24.5245 15.7744 -6.50136
RightHand  -13.6797 10.9311 -80.6251
LeftUpLeg  -40.7992 0.834977 -8.67455
LeftLeg  85.6652 -13.6558 23.4123
LeftFoot  11.4803 1.24598 -5.57008
LeftToes  9.37148e-011 4.50685e-012 -4.11107e-011
293
root  1.11656 18.7232 25.9049 57.4817 -1.76369 -5.21893
RightUpLeg  -80.0521 1.54953 13.7896
RightLeg  123.325 26.3286 -14.7714
RightFoot  -15.311 0.0411451 -0.443182
RightToes  5.82077e-011 -3.18055e-015 -2.98177e-016
Spine  34.3168 2.11131 8.20995
Spine1  -6.06777 2.93849 9.96983
HEad  -27.8257 6.05559 -1.25322
LeftShoulder1  -3.88251e-019 9.70628e-020 -3.87848e-018
LeftArm  -2.45068 -27.8245 -62.7763
LeftForeArm  -3.55099 -14.0577 -4.64395
LeftHand  -8.73396 -9.19005 64.2391
RightShoulder  5.4871 10.3699 25.131
RightArm  6.98901 3.21072 55.0291
RightForeArm  24.7291 15.3586 -6.29249
RightHand  -13.885 10.962 -81.3662
LeftUpLeg  -37.9888 -1.64268 -8.49035
LeftLeg  83.9264 -12.9257 22.1144
LeftFoot  11.9472 0.684736 -2.93506
LeftToes  9.37148e-011 4.50685e-012 -4.11107e-011
294
root  1.05546 18.4978 26.6329 59.4319 -1.02447 -4.04538
RightUpLeg  -78.9006 1.3581 12.8376
RightLeg  121.934 26.0187 -15.0324
RightFoot  -15.3638 0.044789 -0.0969996
RightToes  5.82077e-011 -3.18055e-015 -2.98177e-016
Spine  31.1994 2.3542 7.88875
Spine1  -5.12843 2.75365 9.8765
HEad  -26.9024 3.40119 -1.75766
LeftShoulder1  -3.88251e-019 9.70628e-020 -3.87848e-018
LeftArm  -1.65525 -27.4669 -65.6208
LeftForeArm  -1.73145 -13.102 -5.38824
LeftHand  -9.35115 -9.46053 66.8233
RightShoulder  5.5175 10.4512 25.1461
RightArm  5.22937 1.11842 53.2156
RightForeArm  25.6163 14.1532 -5.42588
RightHand  -14.2054 11.0455 -82.3951
LeftUpLeg  -38.1756 -3.30818 -8.14548
LeftLeg  82.226 -12.3045 20.6509
LeftFoot  12.7962 0.37364 -1.4688
LeftToes  9.37148e-011 4.50685e-012 -4.11107e-011
295
root  1.04518 18.4308 27.4458 62.1769 -0.484647 -4.70178
RightUpLeg  -78.494 2.21801 12.1097
RightLeg  120.492 24.0332 -12.9743
RightFoot  -15.8627 0.0329958 -0.772024
RightToes  5.82077e-011 -3.18055e-015 -2.98177e-016
Spine  28.7525 2.87793 9.23822
Spine1  -5.89079 3.65575 7.59251
HEad  -25.6627 0.239366 -2.68733
LeftShoulder1  -3.88251e-019 9.70628e-020 -3.87848e-018
LeftArm  -1.50139 -26.1182 -68.295
LeftForeArm  1.12189 -13.0304 -5.98158
LeftHand  -10.024 -9.97666 68.6597
RightShoulder  5.91244 10.5847 27.0201
RightArm  6.16734 -0.702748 49.6518
RightForeArm  25.5707 13.9969 -4.38941
RightHand  -14.0062 11.0455 -81.5741
LeftUpLeg  -39.1598 -2.78513 -6.93656
LeftLeg  79.6911 -11.4416 20.0037
LeftFoot  14.4355 0.551208 -2.07317
LeftToes  9.37148e-011 4.50685e-012 -4.11107e-011
296
root  1.07673 18.5158 28.3598 64.0121 -0.634514 -7.18023
RightUpLeg  -77.6561 3.95059 11.7925
RightLeg  118.686 21.681 -10.1819
RightFoot  -14.4266 0.0289853 -1.24523
RightToes  5.82077e-011 -3.18055e-015 -2.98177e-016
Spine  27.4595 3.42802 11.3238
Spine1  -6.29653 5.10311 3.55997
HEad  -24.9834 -2.1953 -4.39398
LeftShoulder1  -3.88251e-019 9.70628e-020 -3.87848e-018
LeftArm  -2.05706 -24.5672 -69.3207
LeftForeArm  3.86678 -13.9102 -6.49448
LeftHand  -10.512 -10.4319 69.5985
RightShoulder  6.42259 10.7253 29.4467
RightArm  10.9091 -2.67052 46.0755
RightForeArm  22.8218 16.1146 -4.92606
RightHand  -12.8487 10.9278 -77.0277
LeftUpLeg  -38.9358 0.283447 -5.58297
LeftLeg  76.472 -10.3452 19.8373
LeftFoot  16.5737 1.02826 -3.70342
LeftToes  9.37148e-011 4.50685e-012 -4.11107e-011
297
root  0.963963 18.5915 29.18 64.6294 -1.7034 -9.06217
RightUpLeg  -75.7051 5.27098 11.0758
RightLeg  117.189 19.952 -7.81518
RightFoot  -13.5412 0.0416313 -0.372286
RightToes  5.82077e-011 -3.18055e-015 -2.98177e-016
Spine  26.6943 3.89831 10.853
Spine1  -5.506 5.84202 1.07136
HEad  -25.2906 -3.45339 -6.14401
LeftShoulder1  -3.88251e-019 9.70628e-020 -3.87848e-018
LeftArm  -3.05287 -23.5649 -69.0358
LeftForeArm  6.13814 -14.1012 -6.75104
LeftHand  -10.8133 -10.5801 70.6087
RightShoulder  6.58928 10.8225 30.1176
RightArm  17.4668 -6.27881 44.8328
RightForeArm  16.0135 19.5944 -8.83311
RightHand  -11.2928 10.7898 -70.4032
LeftUpLeg  -37.7097 3.54662 -5.20097
LeftLeg  74.0164 -9.71931 18.5908
LeftFoot  18.6898 1.3155 -4.44262
LeftToes  9.37148e-011 4.50685e-012 -4.11107e-011
298
root  0.636394 18.6395 29.7747 64.3913 -2.24368 -9.62218
RightUpLeg  -72.5177 5.83237 11.0618
RightLeg  115.661 18.9367 -6.38734
RightFoot  -15.1048 0.0585578 0.746026
RightToes  5.82077e-011 -3.18055e-015 -2.98177e-016
Spine  26.5674 4.35202 8.63065
Spine1  -5.01572 6.03497 0.590298
HEad  -25.3461 -4.6605 -6.71754
LeftShoulder1  -3.88251e-019 9.70628e-020 -3.87848e-018
LeftArm  -3.91366 -23.326 -69.3567
LeftForeArm  8.78997 -12.7466 -6.85837
LeftHand  -11.0639 -10.6128 71.743
RightShoulder  6.56848 10.7973 30.0593
RightArm  19.6196 -11.1039 44.1445
RightForeArm  10.4109 23.8179 -13.4933
RightHand  -10.4097 10.8105 -66.0094
LeftUpLeg  -36.8318 5.74622 -4.41908
LeftLeg  73.6806 -10.1161 15.9868
LeftFoot  19.9327 1.17995 -3.78721
LeftToes  9.37148e-011 4.50685e-012 -4.11107e-011
